# xmcd CD database file
#
# Track frame offsets:
#	150
#	15340
#	32000
#	46520
#	64140
#	79202
#	95232
#	109472
#	125855
#	143190
#
# Disc length: 2097 seconds
#
# Revision: 0
# Processed by: cddbd v1.5.1PL0 Copyright (c) Steve Scherf et al.
# Submitted via: CDex 1.51
#
DISCID=88082f0a
DTITLE=Varios Artistas - O melhor do sertanejo
DYEAR=2002
DGENRE=Country
TTITLE0=ESTRELA DE OURO
TTITLE1=VA COM DEUS
TTITLE2=VIDA DIVIDIDA
TTITLE3=TREM DA VIDA
TTITLE4=FOGO DE PAIXAO
TTITLE5=SO POR VOCE
TTITLE6=OI PAIXÃO
TTITLE7=VIVA A VIDA
TTITLE8=QUANDO O AMOR SE TRANSFORMA EM POESIA
TTITLE9=CAROS AMANTES
EXTD=
EXTT0=
EXTT1=
EXTT2=
EXTT3=
EXTT4=
EXTT5=
EXTT6=
EXTT7=
EXTT8=
EXTT9=
PLAYORDER=
